<svg xmlns="http://www.w3.org/2000/svg" viewBox="0 0 666.667 666.667" width="888.889" height="888.889"  xmlns:v="https://vecta.io/nano"><defs><clipPath id="A"><path d="M0 0h666.667v666.667H0z"/></clipPath></defs><g clip-path="url(#A)"><g filter="url(#B)"><path d="M424.563 604.724L618.274 66.055c3.284-9.136-1.894-15.798-11.558-14.866L454.382 65.864c-9.663.932-20.102 9.131-23.294 18.297L251.791 598.955c-3.195 9.167 2.094 16.609 11.802 16.609h148.275c4.854 0 10.128-3.706 11.771-8.276l.924-2.564z" fill="#536b8a"/></g><defs><filter id="B" x="-200%" y="-200%" width="400%" height="400%" color-interpolation-filters="sRGB"><feGaussianBlur in="SourceGraphic" stdDeviation="1.288"/><feOffset result="A"/><feFlood flood-color="#303235" flood-opacity=".7"/><feComposite in2="A" operator="in"/><feBlend in="SourceGraphic"/></filter></defs><g filter="url(#B)"><path d="M59.951 51.189l152.334 14.675c9.663.932 20.112 9.127 23.32 18.289l183.091 523.111c1.603 4.583-1.036 8.3-5.89 8.3H263.593c-9.708 0-20.257-7.416-23.542-16.552L48.393 66.055c-3.284-9.136 1.894-15.798 11.558-14.866z" fill="#5d87bf"/></g></g></svg>